<?xml version="1.0" encoding="UTF-8"?>
<svg version="1.1" xmlns="http://www.w3.org/2000/svg" width="1024" height="1024">
<path d="M0 0 C337.92 0 675.84 0 1024 0 C1024 337.92 1024 675.84 1024 1024 C686.08 1024 348.16 1024 0 1024 C0 686.08 0 348.16 0 0 Z " fill="#002248" transform="translate(0,0)"/>
<path d="M0 0 C9.26517176 4.73553223 16.85334143 13.78841694 24.375 20.875 C25.4746106 21.90935181 25.4746106 21.90935181 26.59643555 22.96459961 C29.91522088 26.08749081 33.22792829 29.21547503 36.515625 32.37109375 C37.55178668 33.351876 38.5882239 34.33236727 39.625 35.3125 C40.94371094 36.57513672 40.94371094 36.57513672 42.2890625 37.86328125 C45.34819308 40.27444037 48.40978818 41.61511881 52 43 C53.7432682 43.72738841 55.48394791 44.46099708 57.22265625 45.19921875 C58.1664917 45.59955322 59.11032715 45.9998877 60.08276367 46.41235352 C73.97909764 52.35914191 86.67142312 58.82468157 98.57421875 68.21484375 C100.94827642 70.15364874 100.94827642 70.15364874 104 71 C104.8353125 72.051875 104.8353125 72.051875 105.6875 73.125 C107.57002153 75.46543217 109.16512391 77.05180976 111.4375 78.9375 C126.87419624 92.18541095 142.61997711 109.7904207 147 130 C147.66 130 148.32 130 149 130 C153.03571607 138.10451179 155.74552624 146.24183695 158 155 C158.22816406 155.84949219 158.45632813 156.69898438 158.69140625 157.57421875 C159.99809535 162.81011283 160.17121733 167.6066541 160 173 C160.66 173 161.32 173 162 173 C164.27910941 188.89271831 164.57898194 204.25619871 163.125 220.25 C163.04668945 221.11915039 162.96837891 221.98830078 162.88769531 222.88378906 C162.38737135 227.80459983 161.51487244 232.28989241 160 237 C159.34 237 158.68 237 158 237 C157.89042969 237.96808594 157.78085937 238.93617188 157.66796875 239.93359375 C157.01662257 244.4611886 155.70888521 248.71568797 154.3125 253.0625 C154.0448584 253.89740967 153.7772168 254.73231934 153.50146484 255.5925293 C150.2260428 265.60588017 146.27749922 275.00181184 140.875 284.0625 C137.73811993 289.34693082 135.68276817 294.4687878 134.0234375 300.3828125 C127.06948556 324.96052048 116.2107101 349.15749108 103 371 C102.53770996 371.76957031 102.07541992 372.53914063 101.59912109 373.33203125 C90.46288492 391.74493327 77.60954446 408.77372234 63.10546875 424.67578125 C61.26022445 426.71273925 59.4691833 428.78270847 57.6875 430.875 C50.43305605 439.19230434 42.43002496 446.88812439 34 454 C33.10539063 454.78375 32.21078125 455.5675 31.2890625 456.375 C12.29239451 472.91909704 -8.61200552 486.87348391 -30.76806641 498.79589844 C-32.98113922 499.98982483 -35.18424995 501.20070869 -37.38671875 502.4140625 C-46.38803873 507.3290496 -55.42323913 511.3373468 -65 515 C-66.96129265 515.82634437 -68.91977983 516.65938833 -70.875 517.5 C-89.45980772 525.25195188 -108.45419373 530.56883337 -128.2578125 534.10546875 C-131.15145202 534.62781958 -133.92047932 535.23917216 -136.7734375 535.98046875 C-175.88085495 545.99743936 -219.67605705 542.76188001 -259 536 C-260.04978027 535.8242041 -261.09956055 535.6484082 -262.18115234 535.46728516 C-267.83671499 534.49953582 -273.42344059 533.34883461 -279 532 C-280.38396973 531.66548828 -280.38396973 531.66548828 -281.79589844 531.32421875 C-298.26720078 527.28337449 -314.12483198 522.31890465 -329.81298828 515.87011719 C-331.50099802 515.19853126 -333.19945142 514.55315742 -334.90185547 513.91894531 C-342.80781938 510.96532939 -350.34808608 507.56237709 -357.875 503.75 C-359.00977783 503.17789795 -360.14455566 502.6057959 -361.3137207 502.01635742 C-369.78697895 497.70374445 -378.02295598 493.17157759 -386 488 C-386.60811523 487.60748047 -387.21623047 487.21496094 -387.84277344 486.81054688 C-403.91681251 476.38101612 -419.25511459 465.28341539 -433.41796875 452.3359375 C-435.50283619 450.44977906 -437.61306743 448.60869533 -439.7421875 446.7734375 C-451.11469084 436.83862286 -461.76944296 425.95042651 -471 414 C-471.9227397 412.86340937 -472.84874947 411.72946873 -473.77734375 410.59765625 C-498.92253801 379.85326333 -518.17455995 345.57786574 -530.875 307.9375 C-531.4477063 306.24222168 -531.4477063 306.24222168 -532.03198242 304.51269531 C-533.92537552 298.75882489 -535.5407628 293.09706792 -536.59765625 287.12939453 C-537.73387158 281.11600247 -540.07540818 275.78208863 -542.7644043 270.32421875 C-550.13882429 255.29022766 -554.49130398 239.53212627 -557 223 C-557.185625 221.84371094 -557.37125 220.68742188 -557.5625 219.49609375 C-558.2664894 213.64528519 -558.1860049 207.75080124 -558.18530273 201.8659668 C-558.18747672 199.83425532 -558.20564993 197.80309939 -558.22460938 195.77148438 C-558.26084681 187.32295744 -557.4641403 179.31314895 -556 171 C-555.58901604 168.06664121 -555.22847293 165.12827888 -554.875 162.1875 C-554.78863281 161.48302734 -554.70226562 160.77855469 -554.61328125 160.05273438 C-554.40707377 158.36870664 -554.20325082 156.68438714 -554 155 C-553.34 155 -552.68 155 -552 155 C-551.97204346 154.32195312 -551.94408691 153.64390625 -551.9152832 152.9453125 C-551.47752905 145.97022832 -550.03658673 140.35782631 -547.1875 134 C-546.79731689 133.10788818 -546.40713379 132.21577637 -546.00512695 131.29663086 C-541.61323651 121.60645126 -535.93785252 112.79905124 -530 104 C-529.28328125 102.90558594 -528.5665625 101.81117188 -527.828125 100.68359375 C-526.33042761 98.48505079 -524.82122582 96.4877012 -523.0625 94.5 C-521.15019619 92.31862832 -519.27068847 90.12325001 -517.4375 87.875 C-513.56420231 83.30649504 -509.33557104 79.3536747 -504.74609375 75.52734375 C-502.95070553 74.00578812 -502.95070553 74.00578812 -501.27734375 72.17578125 C-476.23932299 48.25437891 -438.91480251 35.42686029 -404.98852539 32.8215332 C-400.81297942 32.44642836 -398.05990616 31.97109622 -395 29 C-395.66 30.32 -396.32 31.64 -397 33 C-396.10583374 33.01401855 -396.10583374 33.01401855 -395.19360352 33.02832031 C-366.61121193 33.58337104 -337.07116511 37.57705579 -311 50 C-309.54497068 50.65390325 -308.08916881 51.30608879 -306.6328125 51.95703125 C-285.80419667 61.39017391 -265.95925252 74.08707577 -249.30078125 89.83984375 C-247.34318644 91.6777893 -245.34768467 93.4295851 -243.3125 95.1796875 C-238.56754937 99.31516455 -234.12556151 103.72737688 -229.6875 108.1875 C-228.89021484 108.98091797 -228.09292969 109.77433594 -227.27148438 110.59179688 C-226.12196289 111.74325195 -226.12196289 111.74325195 -224.94921875 112.91796875 C-224.26174561 113.60656982 -223.57427246 114.2951709 -222.8659668 115.00463867 C-217.56473931 120.67347712 -217.56473931 120.67347712 -217.484375 125.33203125 C-217.67589131 130.53808299 -219.71070653 133.06574599 -223.25 136.6875 C-224.35471672 137.89402784 -225.4588671 139.10107443 -226.5625 140.30859375 C-227.41714844 141.2210083 -227.41714844 141.2210083 -228.2890625 142.15185547 C-231.02862978 145.11111978 -233.63589402 148.18011626 -236.25 151.25 C-236.75072021 151.83233398 -237.25144043 152.41466797 -237.76733398 153.01464844 C-240.69666926 156.42906268 -243.53367995 159.89838622 -246.3125 163.4375 C-255.66756173 175.27292256 -255.66756173 175.27292256 -262.4375 176.75 C-266.38366627 176.72130061 -268.35593751 175.15057956 -271.15063477 172.45410156 C-274.08647624 169.4304336 -276.87520624 166.29769677 -279.63427734 163.11450195 C-290.54113041 150.54724379 -302.05470558 139.15366482 -316 130 C-316.91797363 129.39551025 -316.91797363 129.39551025 -317.85449219 128.77880859 C-327.11979908 122.76683802 -336.76355268 118.11190989 -347 114 C-347.97710937 113.59910156 -348.95421875 113.19820313 -349.9609375 112.78515625 C-360.8900365 108.53851221 -372.315163 106.49572036 -384 106 C-385.23878906 105.92394531 -386.47757813 105.84789062 -387.75390625 105.76953125 C-405.73576551 104.9794061 -423.07752232 109.86509464 -439 118 C-439.90621094 118.46019531 -440.81242187 118.92039062 -441.74609375 119.39453125 C-461.53711645 130.38250706 -476.20386516 149.56276298 -483.40283203 170.86645508 C-490.35302378 195.69790467 -487.13196416 222.62250153 -475.05566406 245.1328125 C-472.43714088 249.76427995 -469.38207019 253.90491874 -466 258 C-465.3090625 258.88816406 -464.618125 259.77632812 -463.90625 260.69140625 C-455.03166241 271.37434302 -439.94397097 283.21120581 -426 286 C-417.63980438 283.26187391 -410.18920777 274.28657426 -403.875 268.3125 C-391.43889389 256.64114971 -391.43889389 256.64114971 -384.3125 255.3125 C-379.88331196 256.23176544 -378.18392799 257.81607201 -375 261 C-373.59087904 263.81824192 -373.88816447 266.17251282 -373.90234375 269.3203125 C-373.90556641 270.57714844 -373.90878906 271.83398438 -373.91210938 273.12890625 C-373.92048828 274.44761719 -373.92886719 275.76632812 -373.9375 277.125 C-373.94251511 278.46484211 -373.94707799 279.804686 -373.95117188 281.14453125 C-373.96298914 284.42973206 -373.97946383 287.71484397 -374 291 C-327.97580871 282.52833631 -290.83966849 255.14052776 -261 220 C-260.0260055 218.87650545 -259.05060708 217.75422729 -258.07421875 216.6328125 C-248.65923522 205.81790472 -239.3526983 194.92564862 -230.3046875 183.80078125 C-227.77966995 180.73224297 -225.20518413 177.70957408 -222.625 174.6875 C-218.73662058 170.1286633 -214.98811214 165.48180785 -211.3125 160.75 C-207.67977942 156.07481335 -203.93520848 151.57747565 -199.94921875 147.1953125 C-197.78070727 144.75302101 -195.73524803 142.23178162 -193.6875 139.6875 C-189.53079288 134.56494872 -185.14768567 129.70882329 -180.66015625 124.87890625 C-178.37829125 122.4093989 -176.15349139 119.90322501 -173.9375 117.375 C-163.50790272 105.78029456 -152.49135607 94.37741403 -140 85 C-139.46407227 84.58766113 -138.92814453 84.17532227 -138.37597656 83.75048828 C-128.37474714 76.06046734 -117.89981545 69.34139343 -107 63 C-106.37689941 62.63277832 -105.75379883 62.26555664 -105.11181641 61.88720703 C-84.45035247 49.81909819 -60.98643098 42.30070541 -37.5 38.125 C-36.51519653 37.94445068 -36.51519653 37.94445068 -35.51049805 37.76025391 C-28.70999846 36.67814653 -21.86703882 36.90172612 -15 37 C-15.04189453 36.12786865 -15.08378906 35.2557373 -15.12695312 34.35717773 C-15.2640376 31.09339586 -15.36390503 27.83270512 -15.43945312 24.56713867 C-15.47947543 23.15941869 -15.53391768 21.75202695 -15.60351562 20.34545898 C-16.16376286 8.72444827 -16.16376286 8.72444827 -13.31103516 4.49731445 C-9.08188301 0.66101569 -5.85650122 -1.19299099 0 0 Z " fill="#043073" transform="translate(710,323)"/>
<path d="M0 0 C48.24536572 -1.49212471 94.67955256 8.51043164 136.62353516 33.08251953 C136.62353516 33.74251953 136.62353516 34.40251953 136.62353516 35.08251953 C137.57228516 35.39189453 138.52103516 35.70126953 139.49853516 36.02001953 C142.62353516 37.08251953 142.62353516 37.08251953 144.62353516 38.08251953 C144.62353516 38.74251953 144.62353516 39.40251953 144.62353516 40.08251953 C146.60353516 40.74251953 148.58353516 41.40251953 150.62353516 42.08251953 C150.62353516 42.74251953 150.62353516 43.40251953 150.62353516 44.08251953 C151.61353516 44.08251953 152.60353516 44.08251953 153.62353516 44.08251953 C153.62353516 44.74251953 153.62353516 45.40251953 153.62353516 46.08251953 C154.94353516 46.41251953 156.26353516 46.74251953 157.62353516 47.08251953 C157.62353516 47.74251953 157.62353516 48.40251953 157.62353516 49.08251953 C159.27353516 49.74251953 160.92353516 50.40251953 162.62353516 51.08251953 C162.62353516 51.74251953 162.62353516 52.40251953 162.62353516 53.08251953 C164.27353516 53.74251953 165.92353516 54.40251953 167.62353516 55.08251953 C167.62353516 55.74251953 167.62353516 56.40251953 167.62353516 57.08251953 C168.24228516 57.39189453 168.86103516 57.70126953 169.49853516 58.02001953 C170.87353516 58.70751953 172.24853516 59.39501953 173.62353516 60.08251953 C173.62353516 60.74251953 173.62353516 61.40251953 173.62353516 62.08251953 C174.28353516 62.08251953 174.94353516 62.08251953 175.62353516 62.08251953 C175.62353516 62.74251953 175.62353516 63.40251953 175.62353516 64.08251953 C176.21448975 64.34822754 176.80544434 64.61393555 177.41430664 64.88769531 C179.68040086 66.11327439 181.16271444 67.37763249 182.97119141 69.19970703 C183.87901367 70.11042969 183.87901367 70.11042969 184.80517578 71.03955078 C185.42585938 71.67248047 186.04654297 72.30541016 186.68603516 72.95751953 C187.31058594 73.58271484 187.93513672 74.20791016 188.57861328 74.85205078 C190.28430485 76.57412573 191.95675189 78.32291035 193.62353516 80.08251953 C194.25775391 80.71931641 194.89197266 81.35611328 195.54541016 82.01220703 C197.26504763 85.31440942 196.93590798 88.70800576 196.81103516 92.33251953 C196.7975 93.07759766 196.78396484 93.82267578 196.77001953 94.59033203 C196.73480719 96.42137369 196.68100366 98.25204122 196.62353516 100.08251953 C195.41181641 100.18048828 194.20009766 100.27845703 192.95166016 100.37939453 C147.37475502 104.33061816 104.68264872 121.43482908 69.62353516 151.08251953 C68.70443359 151.81857422 67.78533203 152.55462891 66.83837891 153.31298828 C59.57133804 159.23870429 52.88153479 165.64308186 46.24853516 172.27001953 C45.40436035 173.11338867 44.56018555 173.95675781 43.69042969 174.82568359 C39.340907 179.21397208 35.13657844 183.67581772 31.10742188 188.36010742 C29.2450421 190.52185295 27.30941216 192.61158971 25.37353516 194.70751953 C21.24589781 199.27038394 17.47199513 204.04672521 13.71044922 208.90917969 C10.97139957 212.42904007 8.14762635 215.79922052 5.12353516 219.08251953 C1.64754582 222.86103725 -1.54903004 226.77663137 -4.68896484 230.83251953 C-8.98376138 236.37914564 -13.44654744 241.74186659 -18.03808594 247.04467773 C-21.02120705 250.49243084 -23.94565458 253.97527047 -26.81396484 257.52001953 C-34.67096952 267.18798536 -42.91258786 276.55188918 -51.28662109 285.77392578 C-52.68037632 287.3135694 -54.06324933 288.86313416 -55.43505859 290.42236328 C-65.2337202 301.51552697 -75.5683417 312.11952912 -87.37646484 321.08251953 C-88.38451172 321.85724609 -89.39255859 322.63197266 -90.43115234 323.43017578 C-109.33576084 337.63132676 -137.70824446 355.72706756 -162.37646484 354.08251953 C-162.38581055 353.26050049 -162.39515625 352.43848145 -162.40478516 351.59155273 C-162.45854355 347.85876991 -162.54218315 344.12723272 -162.62646484 340.39501953 C-162.64064453 339.10144531 -162.65482422 337.80787109 -162.66943359 336.47509766 C-162.70166016 335.22792969 -162.73388672 333.98076172 -162.76708984 332.69580078 C-162.79851074 330.97550659 -162.79851074 330.97550659 -162.83056641 329.22045898 C-163.48304858 325.4698537 -164.74928428 323.78807294 -167.37646484 321.08251953 C-170.48599864 319.52775264 -172.93913245 319.79607517 -176.37646484 320.08251953 C-180.98099969 322.81207758 -184.97621866 326.14695662 -189.00146484 329.64501953 C-189.60394043 330.16443115 -190.20641602 330.68384277 -190.82714844 331.21899414 C-195.93298632 335.64391974 -200.91288806 340.19663489 -205.85302734 344.80517578 C-207.10212891 345.93246094 -207.10212891 345.93246094 -208.37646484 347.08251953 C-209.39353516 348.00484375 -209.39353516 348.00484375 -210.43115234 348.94580078 C-212.37646484 350.08251953 -212.37646484 350.08251953 -214.53271484 349.96533203 C-236.5836888 342.83551712 -254.62796928 326.3296856 -265.37646484 306.08251953 C-276.56830547 284.05404531 -280.03722682 256.98640088 -272.37646484 233.08251953 C-264.38602685 210.66086625 -248.38066754 190.09899898 -226.67895508 179.55737305 C-225.8985083 179.19442139 -225.11806152 178.83146973 -224.31396484 178.45751953 C-223.48904541 178.07072021 -222.66412598 177.6839209 -221.81420898 177.28540039 C-214.49425039 173.95403916 -207.24659077 171.78442251 -199.37646484 170.08251953 C-198.53470703 169.85951172 -197.69294922 169.63650391 -196.82568359 169.40673828 C-169.30943576 162.60860646 -135.90269596 172.7845074 -112.29492188 186.89013672 C-101.03119255 193.89090715 -90.82105644 201.76898148 -81.37646484 211.08251953 C-80.76496582 211.68032227 -80.1534668 212.278125 -79.5234375 212.89404297 C-64.05901381 228.04052087 -64.05901381 228.04052087 -57.43896484 236.58251953 C-54.85563465 238.46130513 -52.68235066 238.83613393 -49.50537109 238.63720703 C-39.14878538 235.93879387 -30.324344 220.48622033 -23.81396484 212.45751953 C-19.86496734 207.59611828 -15.70320458 202.98204526 -11.44287109 198.39501953 C-7.97367056 194.51266279 -6.48478721 191.87664793 -6.63427734 186.71923828 C-8.16014074 181.2984078 -12.69533938 177.61204427 -16.63476562 173.78613281 C-18.47523188 171.98591224 -20.2693648 170.14704463 -22.06005859 168.29736328 C-29.12513206 161.04030906 -36.34143691 154.26896587 -44.37646484 148.08251953 C-45.67511158 147.05576952 -46.97325085 146.02837748 -48.27099609 145.00048828 C-88.5678117 113.34103146 -135.23480569 97.84553335 -186.37646484 97.08251953 C-185.42663127 95.57712292 -184.46634594 94.07831606 -183.50146484 92.58251953 C-182.96779297 91.74720703 -182.43412109 90.91189453 -181.88427734 90.05126953 C-181.38669922 89.40158203 -180.88912109 88.75189453 -180.37646484 88.08251953 C-179.71646484 88.08251953 -179.05646484 88.08251953 -178.37646484 88.08251953 C-178.37646484 87.42251953 -178.37646484 86.76251953 -178.37646484 86.08251953 C-177.71646484 86.08251953 -177.05646484 86.08251953 -176.37646484 86.08251953 C-175.71646484 84.43251953 -175.05646484 82.78251953 -174.37646484 81.08251953 C-173.71646484 81.08251953 -173.05646484 81.08251953 -172.37646484 81.08251953 C-172.37646484 80.42251953 -172.37646484 79.76251953 -172.37646484 79.08251953 C-171.71646484 79.08251953 -171.05646484 79.08251953 -170.37646484 79.08251953 C-170.37646484 78.42251953 -170.37646484 77.76251953 -170.37646484 77.08251953 C-169.02099609 75.75048828 -169.02099609 75.75048828 -167.18896484 74.27001953 C-164.04850073 71.71796481 -161.22487563 68.95702263 -158.37646484 66.08251953 C-145.6195449 53.75950843 -131.42999185 43.40136958 -116.37646484 34.08251953 C-115.55017578 33.53466797 -114.72388672 32.98681641 -113.87255859 32.42236328 C-110.33906463 30.0862227 -108.72526215 29.08251953 -104.37646484 29.08251953 C-104.37646484 28.42251953 -104.37646484 27.76251953 -104.37646484 27.08251953 C-103.05646484 27.08251953 -101.73646484 27.08251953 -100.37646484 27.08251953 C-100.37646484 26.42251953 -100.37646484 25.76251953 -100.37646484 25.08251953 C-99.26271484 24.69064453 -98.14896484 24.29876953 -97.00146484 23.89501953 C-93.80669646 22.70608218 -90.83814776 21.3190959 -87.82568359 19.72705078 C-82.23775575 16.9078464 -76.50892169 14.88666514 -70.56396484 12.95751953 C-69.50806152 12.61060059 -68.4521582 12.26368164 -67.36425781 11.90625 C-60.09275546 9.55182822 -52.88797727 7.52278003 -45.37646484 6.08251953 C-44.58498047 5.91494141 -43.79349609 5.74736328 -42.97802734 5.57470703 C-40.44944348 5.04546855 -37.91505235 4.56156428 -35.37646484 4.08251953 C-34.11060547 3.83373047 -32.84474609 3.58494141 -31.54052734 3.32861328 C-21.03001115 1.31598718 -10.68486045 0.37101734 0 0 Z " fill="#001338" transform="translate(498.37646484375,259.91748046875)"/>
<path d="M0 0 C0.02187378 1.27846802 0.02187378 1.27846802 0.04418945 2.58276367 C0.10543285 5.76071175 0.17962029 8.93802546 0.26245117 12.11547852 C0.29559806 13.48775958 0.32366171 14.86017362 0.34643555 16.23266602 C0.38016766 18.21137766 0.4340149 20.18971376 0.48828125 22.16796875 C0.51446533 23.35672607 0.54064941 24.5454834 0.56762695 25.77026367 C1.0389391 29.29086691 1.87538493 31.17919046 4 34 C7.74183875 36.49455917 9.56243036 36.37606522 14 36 C18.73955345 34.02788022 22.21463282 31.27101615 25.875 27.75 C26.93165191 26.7571312 27.98894364 25.76494289 29.046875 24.7734375 C29.55412109 24.29487305 30.06136719 23.81630859 30.58398438 23.32324219 C32.39480624 21.63106038 34.25142855 19.9972387 36.125 18.375 C40.80790928 14.31450272 45.40152964 10.15558489 50 6 C60.31609115 9.97483799 68.77346648 15.6570129 77 23 C78.28583984 24.14275391 78.28583984 24.14275391 79.59765625 25.30859375 C93.79049646 38.66785138 102.62224039 56.9286496 106 76 C106.18304687 76.9075 106.36609375 77.815 106.5546875 78.75 C109.93812529 103.44316002 104.24693226 127.24929271 89.40039062 147.19335938 C72.40697246 169.11652786 48.48804077 182.39853585 21 186 C16.62068804 186.28647473 12.2627615 186.33441533 7.875 186.3125 C6.68720947 186.30686035 5.49941895 186.3012207 4.27563477 186.29541016 C-17.96223047 185.99009861 -37.54591489 179.53468491 -57 169 C-57.60295898 168.68305176 -58.20591797 168.36610352 -58.82714844 168.03955078 C-74.74719284 159.66263707 -89.04278503 147.99728273 -100.98828125 134.5625 C-101.6838916 133.78922363 -102.37950195 133.01594727 -103.09619141 132.21923828 C-104.46147658 130.68883107 -105.80734442 129.14081383 -107.13037109 127.57373047 C-110.40351206 123.90450352 -112.76200014 121.5807009 -117.73828125 120.8359375 C-120.44419542 120.76936779 -121.82407367 120.92035767 -124.3125 122.046875 C-124.869375 122.60890625 -125.42625 123.1709375 -126 123.75 C-126.65097656 124.39839844 -127.30195312 125.04679688 -127.97265625 125.71484375 C-130.9933898 129.11971683 -133.88163157 132.61361225 -136.71484375 136.17578125 C-138.89591147 138.87135726 -141.16091441 141.44124376 -143.5 144 C-147.48937549 148.37994372 -151.25851375 152.90650213 -154.984375 157.51171875 C-156.63455207 159.54885594 -158.3060553 161.56189289 -160 163.5625 C-163.00637696 167.22652192 -163.45589344 169.25870823 -163 174 C-158.90080743 182.02015938 -151.16161265 188.1634058 -144.3984375 193.9375 C-142.48523067 195.58273323 -140.60231574 197.25028073 -138.7265625 198.9375 C-125.59705165 210.66291682 -111.3154913 220.35392877 -96 229 C-95.23623047 229.433125 -94.47246094 229.86625 -93.68554688 230.3125 C-68.49951534 244.44075992 -41.44995578 253.60178429 -12.66015625 256.67578125 C-10 257 -10 257 -7 258 C-10.67264128 266.67537426 -20.0611359 273.07727838 -27.23828125 278.79296875 C-29.03008677 280.22489254 -30.80015413 281.68461728 -32.54296875 283.17578125 C-52.55975663 300.22487592 -76.96573082 313.18850673 -101.91186523 321.30981445 C-103.71461445 321.90567228 -105.50000752 322.5535742 -107.28125 323.2109375 C-119.2142128 327.52649929 -131.52497998 329.81725748 -144 332 C-144.9384375 332.16806152 -145.876875 332.33612305 -146.84375 332.50927734 C-159.23870826 334.65746964 -171.50620488 335.26180633 -184.0625 335.25 C-185.0990271 335.24910873 -185.0990271 335.24910873 -186.15649414 335.24819946 C-198.47523257 335.20764349 -210.79239297 334.81784667 -222.9375 332.625 C-223.69780518 332.49125977 -224.45811035 332.35751953 -225.24145508 332.21972656 C-226.77817561 331.94677443 -228.31425512 331.67018393 -229.84960938 331.38964844 C-231.78761097 331.03848466 -233.7295617 330.70928644 -235.671875 330.3828125 C-250.21475305 327.76509445 -265.29993077 323.75283888 -278.5625 317.1640625 C-281.36032889 315.82791985 -284.2083443 314.80085389 -287.125 313.75 C-300.15125899 308.7563462 -311.77353325 301.68802117 -323.375 294 C-324.85383667 293.02196411 -324.85383667 293.02196411 -326.36254883 292.02416992 C-333.24148067 287.38840566 -339.64871107 282.32989798 -346 277 C-347.84652955 275.49013054 -349.70350198 273.99454866 -351.5625 272.5 C-352.36816406 271.8503125 -353.17382812 271.200625 -354.00390625 270.53125 C-355.92066503 268.96068062 -355.92066503 268.96068062 -358 268 C-358 263.71 -358 259.42 -358 255 C-356.46472656 254.82984375 -354.92945313 254.6596875 -353.34765625 254.484375 C-314.78284876 250.05921246 -278.12868944 236.69523117 -247 213 C-246.38882324 212.53996582 -245.77764648 212.07993164 -245.14794922 211.60595703 C-237.42260756 205.76405811 -230.12247305 199.56639958 -223 193 C-221.37540147 191.56204629 -219.7503939 190.1245546 -218.125 188.6875 C-210.22298107 181.56946091 -202.60011679 174.08666632 -195.703125 165.984375 C-193.70285807 163.65378876 -191.63333672 161.39305926 -189.5625 159.125 C-185.92602095 155.09605103 -182.51014687 150.94567652 -179.15234375 146.68359375 C-176.72281622 143.65440062 -174.21090285 140.70074621 -171.6875 137.75 C-167.36050875 132.68036096 -163.21494868 127.4938867 -159.12573242 122.23144531 C-155.57593899 117.68317405 -151.88220463 113.27832082 -148.12719727 108.89892578 C-144.78119539 104.97651932 -141.59148961 100.95274529 -138.4375 96.875 C-134.41324062 91.68252221 -130.19454788 86.76824909 -125.6796875 81.98828125 C-123.31223097 79.42958172 -121.17121047 76.71452685 -119 73.98828125 C-113.96753962 67.80451951 -108.47225955 62.1689589 -102.81689453 56.55615234 C-101.12686758 54.87685572 -99.44782236 53.18711031 -97.76953125 51.49609375 C-91.15647975 44.87469144 -84.36100859 38.79147122 -77 33 C-75.90298966 32.09742694 -74.80756776 31.19291395 -73.71484375 30.28515625 C-53.94534697 14.46399779 -25.83290673 -0.20397932 0 0 Z " fill="#001338" transform="translate(695,431)"/>
<path d="M0 0 C10.07595125 5.14993064 18.43153988 15.26563971 26.60302734 22.9777832 C35.14706391 31.03853411 43.81101308 38.96068376 52.5546875 46.8046875 C54.25057592 48.32719436 55.94305367 49.85350555 57.6328125 51.3828125 C62.8980128 56.15975388 62.8980128 56.15975388 68.375 60.6875 C72.42969629 64.25949435 74.76911132 67.1199065 75.4375 72.5625 C74.33088619 81.25732282 66.52289204 86.82260629 60.23046875 92.2890625 C56.05431217 95.92409013 52.0190294 99.69291161 48 103.5 C43.38140739 107.87503402 38.71039288 112.15929393 33.90625 116.33007812 C31.05168021 118.83075146 28.27609688 121.41294863 25.5 124 C3.36095422 144.50630707 3.36095422 144.50630707 -4.3125 145.375 C-9.22547279 144.87537565 -10.58883085 143.49238747 -14 140 C-15.13917218 136.58248347 -15.11338481 133.96512063 -15.09765625 130.36328125 C-15.09443359 129.06455078 -15.09121094 127.76582031 -15.08789062 126.42773438 C-15.07953531 125.05598892 -15.07107037 123.68424413 -15.0625 122.3125 C-15.05748335 120.92903805 -15.05292073 119.54557437 -15.04882812 118.16210938 C-15.03702529 114.77469605 -15.02056019 111.38736967 -15 108 C-42.47947553 113.12830893 -65.68484746 121.80822432 -88 139 C-88.86625 139.65484375 -89.7325 140.3096875 -90.625 140.984375 C-107.47557436 154.05437178 -123.99789302 169.78454887 -137.09765625 186.59375 C-139.15008902 189.18984566 -141.32853952 191.62134251 -143.5625 194.0625 C-147.21039558 198.07075962 -150.63153757 202.20339732 -153.98828125 206.45703125 C-156.02824833 209.03570808 -158.10169827 211.58328532 -160.1875 214.125 C-163.32080602 217.94505802 -166.44244731 221.77416251 -169.55444336 225.61157227 C-198.22992975 260.96614489 -198.22992975 260.96614489 -211.52734375 275.30859375 C-213.50655267 277.46289856 -215.42226257 279.64366709 -217.3125 281.875 C-225.12294419 290.87399005 -233.81591195 299.41245737 -243 307 C-243.51127441 307.43570312 -244.02254883 307.87140625 -244.54931641 308.3203125 C-281.36461522 339.68567441 -324.68002735 359.71086263 -373 364 C-373.01458252 364.91289795 -373.02916504 365.8257959 -373.04418945 366.76635742 C-373.10540795 370.16798611 -373.17958873 373.56882681 -373.26245117 376.9699707 C-373.29561259 378.43926422 -373.32367178 379.90868244 -373.34643555 381.37817383 C-373.38014519 383.49614368 -373.43246433 385.61297995 -373.48828125 387.73046875 C-373.51446533 389.00301514 -373.54064941 390.27556152 -373.56762695 391.58666992 C-374.02766765 395.21841975 -374.79552818 397.10957691 -377 400 C-380.03410337 402.02273558 -380.85371 402.31526269 -384.3125 402.375 C-385.05113281 402.40335938 -385.78976562 402.43171875 -386.55078125 402.4609375 C-393.19298016 401.2108905 -398.191663 395.18796385 -402.875 390.6875 C-407.52485455 386.248188 -412.2184825 381.89886732 -417.07519531 377.6862793 C-420.09115893 375.04405952 -423.01490679 372.3071083 -425.9375 369.5625 C-426.56793213 368.97267334 -427.19836426 368.38284668 -427.84790039 367.77514648 C-431.39631678 364.45243976 -434.93473785 361.11926841 -438.46875 357.78125 C-439.21390869 357.07798584 -439.95906738 356.37472168 -440.72680664 355.65014648 C-442.15703283 354.29952648 -443.58599309 352.94756412 -445.01342773 351.59399414 C-449.01155881 347.81687746 -453.07683007 344.14026774 -457.24047852 340.54614258 C-461.22574321 337.04417486 -464.25562519 334.17720937 -464.75 328.625 C-464.32916247 322.72348765 -461.15806078 319.90586114 -457 316 C-455.86050831 314.90121666 -454.72120096 313.80224214 -453.58203125 312.703125 C-447.07562707 306.4894373 -440.44064691 300.52885777 -433.3671875 294.96484375 C-430.86603044 292.95853869 -430.86603044 292.95853869 -428.3203125 290.25390625 C-426 288 -426 288 -424 288 C-423.65195312 287.13181641 -423.65195312 287.13181641 -423.296875 286.24609375 C-421.67741062 283.44129851 -419.81516335 282.0394972 -417.25 280.0625 C-412.56553792 276.34935683 -408.20556531 272.43031728 -403.875 268.3125 C-391.44755489 256.64276447 -391.44755489 256.64276447 -384.3125 255.3125 C-379.88331196 256.23176544 -378.18392799 257.81607201 -375 261 C-373.59087904 263.81824192 -373.88816447 266.17251282 -373.90234375 269.3203125 C-373.90717773 271.20556641 -373.90717773 271.20556641 -373.91210938 273.12890625 C-373.92467773 275.10697266 -373.92467773 275.10697266 -373.9375 277.125 C-373.94251511 278.46484211 -373.94707799 279.804686 -373.95117188 281.14453125 C-373.96298914 284.42973206 -373.97946383 287.71484397 -374 291 C-327.97580871 282.52833631 -290.83966849 255.14052776 -261 220 C-260.0260055 218.87650545 -259.05060708 217.75422729 -258.07421875 216.6328125 C-248.65923522 205.81790472 -239.3526983 194.92564862 -230.3046875 183.80078125 C-227.77966995 180.73224297 -225.20518413 177.70957408 -222.625 174.6875 C-218.73662058 170.1286633 -214.98811214 165.48180785 -211.3125 160.75 C-207.67977942 156.07481335 -203.93520848 151.57747565 -199.94921875 147.1953125 C-197.78070727 144.75302101 -195.73524803 142.23178162 -193.6875 139.6875 C-189.53079288 134.56494872 -185.14768567 129.70882329 -180.66015625 124.87890625 C-178.37829125 122.4093989 -176.15349139 119.90322501 -173.9375 117.375 C-163.50790272 105.78029456 -152.49135607 94.37741403 -140 85 C-139.46407227 84.58766113 -138.92814453 84.17532227 -138.37597656 83.75048828 C-128.37474714 76.06046734 -117.89981545 69.34139343 -107 63 C-106.37689941 62.63277832 -105.75379883 62.26555664 -105.11181641 61.88720703 C-84.45035247 49.81909819 -60.98643098 42.30070541 -37.5 38.125 C-36.84346436 38.00463379 -36.18692871 37.88426758 -35.51049805 37.76025391 C-28.70999846 36.67814653 -21.86703882 36.90172612 -15 37 C-15.04189453 36.12786865 -15.08378906 35.2557373 -15.12695312 34.35717773 C-15.2640376 31.09339586 -15.36390503 27.83270512 -15.43945312 24.56713867 C-15.47947543 23.15941869 -15.53391768 21.75202695 -15.60351562 20.34545898 C-16.16376286 8.72444827 -16.16376286 8.72444827 -13.31103516 4.49731445 C-9.08188301 0.66101569 -5.85650122 -1.19299099 0 0 Z " fill="#60F08C" transform="translate(710,323)"/>
<path d="M0 0 C0 0.99 0 1.98 0 3 C-0.33 3.33 -0.66 3.66 -1 4 C-0.10583374 4.01401855 -0.10583374 4.01401855 0.80639648 4.02832031 C29.38878807 4.58337104 58.92883489 8.57705579 85 21 C86.45502932 21.65390325 87.91083119 22.30608879 89.3671875 22.95703125 C110.19580333 32.39017391 130.04074748 45.08707577 146.69921875 60.83984375 C148.65681356 62.6777893 150.65231533 64.4295851 152.6875 66.1796875 C157.43245063 70.31516455 161.87443849 74.72737688 166.3125 79.1875 C167.10978516 79.98091797 167.90707031 80.77433594 168.72851562 81.59179688 C169.87803711 82.74325195 169.87803711 82.74325195 171.05078125 83.91796875 C171.73825439 84.60656982 172.42572754 85.2951709 173.1340332 86.00463867 C178.43526069 91.67347712 178.43526069 91.67347712 178.515625 96.33203125 C178.32410869 101.53808299 176.28929347 104.06574599 172.75 107.6875 C171.64528328 108.89402784 170.5411329 110.10107443 169.4375 111.30859375 C168.58285156 112.2210083 168.58285156 112.2210083 167.7109375 113.15185547 C164.97137022 116.11111978 162.36410598 119.18011626 159.75 122.25 C159.24927979 122.83233398 158.74855957 123.41466797 158.23266602 124.01464844 C155.30333074 127.42906268 152.46632005 130.89838622 149.6875 134.4375 C140.33243827 146.27292256 140.33243827 146.27292256 133.5625 147.75 C129.61633373 147.72130061 127.64406249 146.15057956 124.84936523 143.45410156 C121.91352376 140.4304336 119.12479376 137.29769677 116.36572266 134.11450195 C105.45886959 121.54724379 93.94529442 110.15366482 80 101 C79.38801758 100.59700684 78.77603516 100.19401367 78.14550781 99.77880859 C68.88020092 93.76683802 59.23644732 89.11190989 49 85 C48.02289063 84.59910156 47.04578125 84.19820313 46.0390625 83.78515625 C35.1099635 79.53851221 23.684837 77.49572036 12 77 C10.76121094 76.92394531 9.52242187 76.84789062 8.24609375 76.76953125 C-9.73576551 75.9794061 -27.07752232 80.86509464 -43 89 C-43.90621094 89.46019531 -44.81242187 89.92039062 -45.74609375 90.39453125 C-65.53711645 101.38250706 -80.20386516 120.56276298 -87.40283203 141.86645508 C-94.35302378 166.69790467 -91.13196416 193.62250153 -79.05566406 216.1328125 C-76.43714088 220.76427995 -73.38207019 224.90491874 -70 229 C-69.3090625 229.88816406 -68.618125 230.77632812 -67.90625 231.69140625 C-57.54205673 244.16748137 -43.08594266 252.47010462 -28 258 C-34.34547701 264.42551006 -41.0503923 270.46323791 -47.875 276.375 C-51.59204769 279.61192903 -55.2401246 282.92142874 -58.875 286.25 C-59.44718262 286.76997559 -60.01936523 287.28995117 -60.60888672 287.82568359 C-65.79203679 292.55843506 -65.79203679 292.55843506 -67.6875 299.0625 C-67.54944243 304.74126794 -64.49040374 307.61521356 -60.6484375 311.51171875 C-57.22251582 314.73046817 -53.77388262 317.91301433 -50.2421875 321.015625 C-47.71666818 323.2507536 -45.34426594 325.57759186 -43 328 C-50.90783342 326.82782115 -57.75485617 324.32884987 -65 321 C-66.06992188 320.51789063 -67.13984375 320.03578125 -68.2421875 319.5390625 C-78.4924274 314.68617756 -87.75094008 308.52765266 -97 302 C-97.91394531 301.35546875 -98.82789063 300.7109375 -99.76953125 300.046875 C-119.0367195 285.47339701 -134.01998091 266.35123437 -145 245 C-145.31807617 244.39365723 -145.63615234 243.78731445 -145.96386719 243.16259766 C-153.9451881 227.79626142 -158.41047903 211.06475693 -161 194 C-161.185625 192.84371094 -161.37125 191.68742188 -161.5625 190.49609375 C-162.2664894 184.64528519 -162.1860049 178.75080124 -162.18530273 172.8659668 C-162.18747672 170.83425532 -162.20564993 168.80309939 -162.22460938 166.77148438 C-162.26084681 158.32295744 -161.4641403 150.31314895 -160 142 C-159.58901604 139.06664121 -159.22847293 136.12827888 -158.875 133.1875 C-158.78863281 132.48302734 -158.70226562 131.77855469 -158.61328125 131.05273438 C-158.40707377 129.36870664 -158.20325082 127.68438714 -158 126 C-157.34 126 -156.68 126 -156 126 C-155.97204346 125.32195312 -155.94408691 124.64390625 -155.9152832 123.9453125 C-155.47752905 116.97022832 -154.03658673 111.35782631 -151.1875 105 C-150.79731689 104.10788818 -150.40713379 103.21577637 -150.00512695 102.29663086 C-145.61323651 92.60645126 -139.93785252 83.79905124 -134 75 C-133.28328125 73.90558594 -132.5665625 72.81117188 -131.828125 71.68359375 C-130.33042761 69.48505079 -128.82122582 67.4877012 -127.0625 65.5 C-125.15019619 63.31862832 -123.27068847 61.12325001 -121.4375 58.875 C-117.56420231 54.30649504 -113.33557104 50.3536747 -108.74609375 46.52734375 C-106.95070553 45.00578812 -106.95070553 45.00578812 -105.27734375 43.17578125 C-80.21929977 19.23524866 -42.85581074 6.40089864 -8.90063477 3.8215332 C-4.64057229 3.47297771 -4.64057229 3.47297771 -0.984375 1.4375 C-0.65953125 0.963125 -0.3346875 0.48875 0 0 Z " fill="#0DCE7A" transform="translate(314,352)"/>
<path d="M0 0 C6.3883325 0.87432197 11.56334773 3.24828256 17.375 5.9375 C18.43831543 6.42750488 19.50163086 6.91750977 20.59716797 7.42236328 C30.69919643 12.17185861 40.72014841 17.42868372 49.2421875 24.7265625 C51.84156496 27.14687845 51.84156496 27.14687845 55 28 C55.556875 28.70125 56.11375 29.4025 56.6875 30.125 C58.57002153 32.46543217 60.16512391 34.05180976 62.4375 35.9375 C77.87419624 49.18541095 93.61997711 66.7904207 98 87 C98.66 87 99.32 87 100 87 C104.03571607 95.10451179 106.74552624 103.24183695 109 112 C109.34224609 113.27423828 109.34224609 113.27423828 109.69140625 114.57421875 C110.99809535 119.81011283 111.17121733 124.6066541 111 130 C111.66 130 112.32 130 113 130 C115.27910941 145.89271831 115.57898194 161.25619871 114.125 177.25 C114.00753418 178.55372559 114.00753418 178.55372559 113.88769531 179.88378906 C113.38737135 184.80459983 112.51487244 189.28989241 111 194 C110.34 194 109.68 194 109 194 C108.83564453 195.45212891 108.83564453 195.45212891 108.66796875 196.93359375 C104.86417203 223.37429588 90.06067366 247.16200737 73 267 C72.31808594 267.81210937 71.63617187 268.62421875 70.93359375 269.4609375 C69.32723798 271.34682154 67.67966589 273.17935496 66 275 C65.41089844 275.66515625 64.82179688 276.3303125 64.21484375 277.015625 C42.34951917 300.43974921 9.1302345 315.59275652 -22 321 C-23.0300415 321.18473877 -24.06008301 321.36947754 -25.12133789 321.55981445 C-34.9568657 323.15962463 -44.62667539 323.35847585 -54.5625 323.3125 C-55.40104523 323.31034485 -56.23959045 323.3081897 -57.10354614 323.30596924 C-69.9468182 323.25305144 -82.41497142 322.77108512 -95 320 C-95.88510254 319.81195801 -96.77020508 319.62391602 -97.68212891 319.43017578 C-126.36048149 313.15756586 -153.92342317 300.7838166 -178 284 C-178.89960449 283.37424072 -178.89960449 283.37424072 -179.81738281 282.73583984 C-192.58945696 273.77280601 -204.21239096 263.6818996 -215.625 253.0625 C-216.63808228 252.12229004 -216.63808228 252.12229004 -217.67163086 251.16308594 C-227.68858741 241.74043079 -227.68858741 241.74043079 -228.3125 236.25 C-227.73192502 230.21202018 -223.33234943 226.09127693 -219.3125 221.8125 C-215.89158767 218.11069164 -212.60382426 214.35929812 -209.4375 210.4375 C-205.80873194 205.94473954 -202.03241493 201.62928175 -198.140625 197.36328125 C-195.53755717 194.48945637 -193.01611043 191.55039103 -190.5078125 188.59375 C-188.59681822 186.57383895 -186.8789682 185.1509884 -184.08984375 184.671875 C-178.51820572 184.87411232 -175.81770552 186.64387208 -171.875 190.5625 C-170.2252449 192.35249703 -168.59884541 194.16438713 -167 196 C-166.35933594 196.72445312 -165.71867188 197.44890625 -165.05859375 198.1953125 C-163.90704218 199.50916329 -162.75979645 200.82680226 -161.6171875 202.1484375 C-139.1988324 227.81582957 -103.83901266 246.31352997 -70 250 C-38.73628036 251.5834263 -10.78305215 246.10668167 13.1875 224.75 C30.56311076 208.64071882 41.31651918 186.81037377 42.21875 163.11328125 C42.80889476 138.62003812 36.40141317 113.81751584 19.4375 95.4375 C17.65965891 93.58295934 15.84360932 91.79140578 14 90 C13.31035156 89.32453125 12.62070312 88.6490625 11.91015625 87.953125 C6.77404794 83.20563838 0.95494312 79.62812019 -5 76 C-6.56353319 75.02248397 -8.12616164 74.04351791 -9.6875 73.0625 C-10.780625 72.381875 -11.87375 71.70125 -13 71 C-11.84960919 69.84960919 -10.69888266 68.69955293 -9.546875 67.55078125 C-8.48959702 66.49083338 -7.43774005 65.42545767 -6.390625 64.35546875 C-2.67197933 60.57712006 1.17559324 57.02569219 5.203125 53.578125 C7.01968133 52.03198806 7.01968133 52.03198806 8.609375 50.296875 C10 49 10 49 12 49 C12.33 48.01 12.66 47.02 13 46 C14.7421875 44.28125 14.7421875 44.28125 16.875 42.5 C23.07639093 37.39402582 23.07639093 37.39402582 25.5 29.875 C24.65244905 23.30648012 20.51327291 19.09571966 15.53125 14.94140625 C13.94878842 13.7370328 12.34708798 12.55729251 10.72265625 11.41015625 C9.86994141 10.71212891 9.86994141 10.71212891 9 10 C9 9.34 9 8.68 9 8 C8.443125 7.79375 7.88625 7.5875 7.3125 7.375 C4.07498698 5.44999226 2.31768859 2.96149098 0 0 Z " fill="#0AC472" transform="translate(759,366)"/>
<path d="M0 0 C8.77382432 3.90458151 15.88339634 8.56365992 23 15 C24.28390625 16.14275391 24.28390625 16.14275391 25.59375 17.30859375 C39.7939293 30.65413263 48.62347583 48.93562508 52 68 C52.18304687 68.9075 52.36609375 69.815 52.5546875 70.75 C55.93812529 95.44316002 50.24693226 119.24929271 35.40039062 139.19335938 C24.07635293 153.80247355 10.66144434 163.24016488 -6 171 C-7.15401607 168.19738955 -7.0056398 167.01691941 -6.03125 164.09375 C-5.27328125 162.31484375 -5.27328125 162.31484375 -4.5 160.5 C6.53047669 133.05688374 10.2255078 103.58312773 10.3125 74.25 C10.31511841 73.39749664 10.31773682 72.54499329 10.32043457 71.66665649 C10.32530511 56.77446922 9.06525696 42.60827318 6 28 C5.81856445 27.12037598 5.63712891 26.24075195 5.45019531 25.33447266 C4.64117292 21.46398572 3.7922294 17.60594256 2.8828125 13.7578125 C1.80979922 9.19038429 0.89143581 4.60575168 0 0 Z " fill="#034597" transform="translate(749,439)"/>
<path d="M0 0 C5.372254 1.96182465 8.86648682 6.71383132 12.53515625 10.92578125 C13.17582031 11.65023437 13.81648437 12.3746875 14.4765625 13.12109375 C15.62811407 14.43494454 16.7753598 15.75258351 17.91796875 17.07421875 C24.6184363 24.74576855 32.48305444 30.74989734 40.53515625 36.92578125 C40.00185052 41.11074985 38.71105921 43.38355411 36.03515625 46.61328125 C33.5327516 49.60644372 33.5327516 49.60644372 31.53515625 52.92578125 C30.87515625 52.92578125 30.21515625 52.92578125 29.53515625 52.92578125 C29.27734375 53.65023437 29.01953125 54.3746875 28.75390625 55.12109375 C27.47678694 58.0601055 25.97189589 60.25285738 24.03515625 62.80078125 C20.70485611 67.27946075 17.54799098 71.83368892 14.47265625 76.48828125 C13.62520153 77.76575871 12.77754863 79.04310473 11.9296875 80.3203125 C11.52443848 80.93084473 11.11918945 81.54137695 10.70166016 82.17041016 C9.03340435 84.6808244 7.35805469 87.18528782 5.66015625 89.67578125 C5.14710938 90.43375 4.6340625 91.19171875 4.10546875 91.97265625 C2.44420168 94.03890882 0.71635418 95.43387964 -1.46484375 96.92578125 C-13.70827039 88.04593336 -25.02572617 78.29240353 -36.08984375 67.98828125 C-36.76499023 67.36163574 -37.44013672 66.73499023 -38.13574219 66.08935547 C-48.1533242 56.66715326 -48.1533242 56.66715326 -48.77734375 51.17578125 C-48.19676877 45.13780143 -43.79719318 41.01705818 -39.77734375 36.73828125 C-36.35643142 33.03647289 -33.06866801 29.28507937 -29.90234375 25.36328125 C-26.27357569 20.87052079 -22.49725868 16.555063 -18.60546875 12.2890625 C-16.00240092 9.41523762 -13.48095418 6.47617228 -10.97265625 3.51953125 C-7.42603907 -0.22922474 -4.8596859 -0.65586005 0 0 Z " fill="#05A45B" transform="translate(579.46484375,551.07421875)"/>
<path d="M0 0 C-0.51738537 4.73038049 -1.22196422 9.24600376 -2.35839844 13.87646484 C-10.26622355 46.38226012 -11.83461439 84.16242739 -5 117 C-4.68603271 118.5144873 -4.68603271 118.5144873 -4.36572266 120.05957031 C-1.69819327 132.54579773 1.62882483 144.71407014 5.8984375 156.74609375 C7 160 7 160 7 162 C-14.06395213 154.36479695 -28.02402194 135.24124031 -37.5078125 115.9296875 C-46.8505787 94.95042209 -47.40771742 67.98044343 -39.7109375 46.3828125 C-34.58276016 33.63092767 -16.51803383 0 0 0 Z " fill="#044596" transform="translate(267,443)"/>
<path d="M0 0 C0 0.99 0 1.98 0 3 C-2.51091644 5.51091644 -3.71325786 5.39356757 -7.19921875 5.74609375 C-8.24400391 5.86146484 -9.28878906 5.97683594 -10.36523438 6.09570312 C-12.56035457 6.32153854 -14.75566523 6.54553107 -16.95117188 6.76757812 C-22.89464718 7.42715448 -27.52885686 8.4763389 -33 11 C-36.15883536 11.85649754 -39.35187944 12.4944775 -42.5625 13.125 C-43.38685547 13.29386719 -44.21121094 13.46273438 -45.06054688 13.63671875 C-49.3612295 14.5099189 -53.66524133 15.311497 -58 16 C-44.66501023 7.11000682 -24.34325444 4.90403333 -8.69799805 3.77075195 C-4.54930689 3.4443669 -4.54930689 3.4443669 -1 1.44140625 C-0.67 0.96574219 -0.34 0.49007813 0 0 Z " fill="#0A82A1" transform="translate(314,352)"/>
<path d="M0 0 C6.02623038 1.85422473 11.64160509 4.470434 17.3671875 7.078125 C21.52562157 8.95432084 25.63046704 10.65552832 30 12 C28.68 10.35 27.36 8.7 26 7 C28.99220268 8.36370299 31.29026529 9.94908083 33.75 12.125 C34.67039062 12.93324219 34.67039062 12.93324219 35.609375 13.7578125 C36.29773438 14.37269531 36.29773438 14.37269531 37 15 C32.91401265 16.36199578 30.19261695 14.97644092 26.3125 13.5625 C25.56806641 13.2953418 24.82363281 13.02818359 24.05664062 12.75292969 C18.553823 10.71545004 13.25344394 8.36082063 8 5.75 C6.96806519 5.2386853 6.96806519 5.2386853 5.9152832 4.71704102 C1.13126206 2.26252411 1.13126206 2.26252411 0 0 Z " fill="#0A9068" transform="translate(234,664)"/>
<path d="M0 0 C4.62834919 0.62424748 8.45609575 2.51801827 12.5625 4.625 C13.26125244 4.97965332 13.96000488 5.33430664 14.67993164 5.69970703 C32.38862874 14.77725748 32.38862874 14.77725748 34 18 C26.69987125 15.17414371 19.72658665 12.00732822 13 8 C13 7.34 13 6.68 13 6 C12.39671875 5.81824219 11.7934375 5.63648438 11.171875 5.44921875 C3.23374341 2.95254833 3.23374341 2.95254833 0 0 Z " fill="#0A83A2" transform="translate(769,370)"/>
<path d="M0 0 C0.66 0.33 1.32 0.66 2 1 C1.57589844 1.4125 1.15179688 1.825 0.71484375 2.25 C-2.47949838 5.39519841 -5.53811246 8.57952438 -8.4375 12 C-11.94896784 16.08607167 -15.86270856 19.56121231 -20 23 C-20 18.23732734 -16.85417296 15.90034447 -13.6875 12.5625 C-11.0825753 10.07873459 -8.39624794 7.74762108 -5.6484375 5.42578125 C-3.66564001 3.71080238 -1.81657941 1.88924259 0 0 Z " fill="#0A959A" transform="translate(211,393)"/>
<path d="M0 0 C3.26120435 1.68716907 6.12863604 3.71920026 9 6 C8.67 6.66 8.34 7.32 8 8 C7.43152344 7.566875 6.86304688 7.13375 6.27734375 6.6875 C2.63573621 4.06116534 -0.18649192 2.16831202 -4.625 1.25 C-8.45808916 2.10179759 -10.74010899 3.07897071 -13.62109375 5.734375 C-16.55108296 10.54852158 -16.0526045 16.51410245 -16 22 C-16.99 21.34 -17.98 20.68 -19 20 C-18.67 19.34 -18.34 18.68 -18 18 C-17.89712002 16.25104027 -17.81696677 14.50070269 -17.75 12.75 C-17.29499316 7.15781916 -16.14155356 4.74711989 -12 1 C-7.87981385 -0.37339538 -4.29969017 -0.74689454 0 0 Z " fill="#0F69AA" transform="translate(711,322)"/>
<path d="M0 0 C0.66 0.33 1.32 0.66 2 1 C-2.62 5.62 -7.24 10.24 -12 15 C-12.66 14.67 -13.32 14.34 -14 14 C-9.67106815 8.81580806 -5.23435005 4.27293882 0 0 Z " fill="#046296" transform="translate(257,449)"/>
<path d="M0 0 C0.8440534 2.36334952 1.1709445 3.55839337 0.25 5.9375 C-1.12992072 8.21436918 -2.56701757 9.57312543 -4.625 11.25 C-5.25664063 11.77078125 -5.88828125 12.2915625 -6.5390625 12.828125 C-7.02117188 13.21484375 -7.50328125 13.6015625 -8 14 C-8.66 13.67 -9.32 13.34 -10 13 C-9.36191406 12.22914063 -8.72382812 11.45828125 -8.06640625 10.6640625 C-6.82697266 9.15972656 -6.82697266 9.15972656 -5.5625 7.625 C-4.73878906 6.62726562 -3.91507813 5.62953125 -3.06640625 4.6015625 C-1.01584166 2.20344705 -1.01584166 2.20344705 0 0 Z " fill="#025276" transform="translate(845,615)"/>
<path d="M0 0 C0.66 0.33 1.32 0.66 2 1 C1.28972656 1.69867188 0.57945312 2.39734375 -0.15234375 3.1171875 C-1.07144531 4.02726562 -1.99054687 4.93734375 -2.9375 5.875 C-4.31228516 7.23238281 -4.31228516 7.23238281 -5.71484375 8.6171875 C-8.01187627 10.77682255 -8.01187627 10.77682255 -9 13 C-9.99 12.67 -10.98 12.34 -12 12 C-8 8 -4 4 0 0 Z " fill="#17D37E" transform="translate(758,425)"/>
<path d="M0 0 C0.625 1.8125 0.625 1.8125 1 4 C0.01 5.485 0.01 5.485 -1 7 C-1.66 7 -2.32 7 -3 7 C-3.4021875 8.11375 -3.4021875 8.11375 -3.8125 9.25 C-4.94229421 11.86636554 -6.20893202 13.80187111 -8 16 C-7.43555175 11.65136348 -5.84572036 8.82172345 -3.4375 5.1875 C-2.79683594 4.21167969 -2.15617188 3.23585938 -1.49609375 2.23046875 C-0.75552734 1.12638672 -0.75552734 1.12638672 0 0 Z " fill="#057994" transform="translate(175,435)"/>
<path d="M0 0 C2.39073149 2.93189994 3.84107307 5.72143288 5.1875 9.25 C5.53167969 10.14203125 5.87585938 11.0340625 6.23046875 11.953125 C6.48441406 12.62859375 6.73835937 13.3040625 7 14 C6.34 14 5.68 14 5 14 C1.18890008 9.38048494 0.40919538 5.93333307 0 0 Z " fill="#07809D" transform="translate(858,453)"/>
<path d="M0 0 C0.66 0.33 1.32 0.66 2 1 C-0.64 3.64 -3.28 6.28 -6 9 C-6.66 8.67 -7.32 8.34 -8 8 C-7.04578192 6.85073734 -6.08647955 5.70569459 -5.125 4.5625 C-4.59132812 3.92441406 -4.05765625 3.28632813 -3.5078125 2.62890625 C-2 1 -2 1 0 0 Z " fill="#057AA0" transform="translate(211,393)"/>
<path d="M0 0 C2.72426311 2.35277269 3.8141763 4.62496331 5 8 C2.525 7.01 2.525 7.01 0 6 C0 4.02 0 2.04 0 0 Z " fill="#014873" transform="translate(173,605)"/>
</svg>
